<svg width="187"  height="40" viewBox="0 0 187 40" fill="none" xmlns="http://www.w3.org/2000/svg">
<g clip-path="url(#clip0_1488_4)">
<path d="M113.565 20.1597C112.812 19.5221 111.754 19.1887 110.42 19.1887V19.2032H106.87V30.754H108.217V26.58H110.406C111.739 26.58 112.797 26.2467 113.551 25.5945C114.304 24.9279 114.681 24.0293 114.681 22.8699C114.696 21.7105 114.319 20.7974 113.565 20.1597ZM112.565 24.667C112.072 25.1018 111.348 25.3047 110.391 25.3047H108.217V20.4786H110.377C111.29 20.4786 111.985 20.696 112.522 21.1018C113.043 21.5076 113.319 22.1018 113.319 22.8844C113.304 23.638 113.058 24.2322 112.565 24.667ZM104.101 19.2032H102.754V25.9858C102.754 28.4786 101.609 29.725 99.3623 29.725C97.1014 29.725 95.9855 28.4786 95.9855 25.9858V19.2032H94.6376V25.9713C94.6376 27.609 95.0579 28.8554 95.8695 29.7105C96.6811 30.5655 97.8695 30.9858 99.3768 30.9858C100.899 30.9858 102.058 30.58 102.884 29.7105C103.71 28.8409 104.116 27.5945 104.116 25.9713L104.101 19.2032ZM92.1159 22.58C91.7971 21.8409 91.3768 21.2177 90.8261 20.6815C90.2753 20.1598 89.6376 19.7395 88.913 19.4496C88.1884 19.1453 87.4058 19.0003 86.5942 19.0003C85.7826 19.0003 85 19.1453 84.2753 19.4496C83.5507 19.7395 82.8985 20.1598 82.3623 20.6815C81.8116 21.2032 81.3913 21.8554 81.0724 22.5945C80.7536 23.3337 80.5942 24.1453 80.5942 25.0148L80.6376 24.9858C80.6376 25.8554 80.7826 26.667 81.1014 27.4061C81.4202 28.1453 81.8405 28.7974 82.3913 29.3192C82.942 29.8409 83.5652 30.2612 84.2898 30.5511C85.0145 30.8264 85.7971 30.9858 86.6087 30.9858C87.4202 30.9858 88.2029 30.8409 88.942 30.5511C89.6666 30.2612 90.3043 29.8409 90.855 29.3192C91.4058 28.7974 91.826 28.1598 92.1449 27.4206C92.4637 26.6815 92.6087 25.8699 92.6087 25.0003C92.5942 24.1308 92.4347 23.3192 92.1159 22.58ZM90.8985 26.8844C90.6666 27.4641 90.3333 27.9569 89.9275 28.3627C89.5217 28.7685 89.0144 29.0873 88.4637 29.3192C87.8985 29.5511 87.2898 29.667 86.6521 29.667C86 29.667 85.3768 29.5511 84.826 29.3192C84.2608 29.0873 83.7681 28.7685 83.3623 28.3627C82.9565 27.9424 82.6232 27.4496 82.3913 26.8844C82.1594 26.3047 82.0434 25.6815 82.0434 24.9858L82.0869 24.9713C82.0869 24.2612 82.2029 23.6235 82.4347 23.0438C82.6666 22.4641 82.9855 21.9713 83.3913 21.5655C83.7971 21.1453 84.2753 20.8409 84.8405 20.609C85.4058 20.3771 86.0145 20.2612 86.6666 20.2612C87.3043 20.2612 87.9275 20.3771 88.4782 20.609C89.0434 20.8409 89.5217 21.1598 89.9275 21.5655C90.3333 21.9713 90.6666 22.4786 90.8985 23.0438C91.1304 23.6235 91.2463 24.2612 91.2463 24.9713C91.2463 25.667 91.1304 26.3047 90.8985 26.8844ZM76.4347 26.1743C77.2029 25.9279 77.8116 25.5076 78.2174 24.9569C78.6376 24.3916 78.8405 23.696 78.8405 22.8699C78.8405 21.7395 78.4637 20.8554 77.6956 20.1887C76.942 19.5221 75.884 19.2032 74.5072 19.2032H71V30.754H72.3478V26.4641H74.8116C74.913 26.4641 75.0145 26.4641 75.0869 26.4496L77.7101 30.754H79.2318L76.4347 26.1743ZM74.6521 25.2612L74.6376 25.2467H72.3478V20.4641H74.6376C75.5217 20.4641 76.2174 20.6815 76.7101 21.1163C77.2029 21.5511 77.4492 22.1308 77.4492 22.8699C77.4492 23.5655 77.2173 24.1453 76.7536 24.5945C76.3043 25.0293 75.5942 25.2612 74.6521 25.2612ZM63.7826 24.7829V25.8989H67.3043V27.3337C67.1884 27.58 67.0145 27.8409 66.7536 28.1163C66.5072 28.3771 66.2029 28.6235 65.855 28.8554C65.5072 29.0873 65.1014 29.2902 64.6376 29.4351C64.1739 29.58 63.6666 29.667 63.1014 29.667C62.4347 29.667 61.826 29.5511 61.2753 29.3192C60.7101 29.0873 60.2174 28.7685 59.8116 28.3627C59.4058 27.9569 59.0724 27.4496 58.8405 26.8844C58.6087 26.3047 58.4927 25.667 58.4927 24.9569C58.4927 24.2612 58.6087 23.638 58.8405 23.0583C59.0724 22.4786 59.3913 21.9858 59.7971 21.58C60.2029 21.1597 60.6956 20.8554 61.2463 20.6235C61.8116 20.3916 62.4203 20.2757 63.0724 20.2757C63.884 20.2757 64.6232 20.4641 65.3188 20.8264C66.0145 21.1887 66.5507 21.696 66.9565 22.3482L68.3333 22.0003C67.826 21.0873 67.1159 20.3626 66.2173 19.8264C65.3333 19.2757 64.2898 19.0003 63.0869 18.9858C62.2608 18.9858 61.4927 19.1308 60.7681 19.4351C60.0434 19.7395 59.3913 20.1453 58.855 20.667C58.3043 21.1887 57.884 21.8409 57.5652 22.58C57.2463 23.3192 57.0869 24.1308 57.0869 25.0003C57.0869 25.8699 57.2318 26.6815 57.5507 27.4206C57.8695 28.1598 58.2898 28.8119 58.8405 29.3337C59.3913 29.8554 60.0145 30.2757 60.7391 30.5655C61.4637 30.8409 62.2463 31.0003 63.0579 31.0003C63.6231 31.0003 64.1304 30.9424 64.5942 30.7974C65.0579 30.6815 65.4492 30.5221 65.7971 30.3192C66.1449 30.1163 66.4347 29.9134 66.6811 29.6815C66.9275 29.4496 67.1304 29.2467 67.2608 29.0873L67.2753 29.0583H67.2898V30.7684H68.4782V24.7974H63.7826V24.7829Z" fill="white"/>
<path  clip-rule="evenodd" d="M29.1449 24.0871C29.0145 24.0436 28.7826 24.0871 28.6522 24.0871H28.5652C28.2899 24.0871 27.971 24.1306 27.7101 24.1306C26.942 24.1741 26.2174 24.1741 25.4928 24.1741C24.087 24.1306 22.6957 24.0871 21.3333 23.9422C20.0725 23.8117 18.8551 23.5799 17.6232 23.3045C16.5362 23.0726 15.4928 22.7683 14.4638 22.3625C13.5652 22.0001 12.6957 21.5509 11.8841 21.0581C11.2029 20.6088 10.5217 20.0581 9.98551 19.4349C9.49275 18.8987 9.08696 18.261 8.81159 17.5364C8.68116 17.1741 8.57971 16.8117 8.53623 16.4494C8.49275 16.0436 8.44927 15.6378 8.49275 15.232C8.53623 14.8262 8.62319 14.4204 8.72464 14.0146C8.85507 13.5654 9.04348 13.1596 9.26087 12.7538C9.49275 12.348 9.75362 11.9422 10.0725 11.5364C10.3913 11.1306 10.7101 10.7248 11.1159 10.319C11.4783 9.9132 11.9275 9.55087 12.3768 9.14507C12.8261 8.73928 13.3768 8.37696 13.8696 8.01464C14.4058 7.65232 15 7.29 15.5797 6.92768C16.1739 6.56537 16.7971 6.20305 17.4348 5.8842C18.1594 5.56536 18.8406 5.20305 19.5072 4.94218C20.2754 4.62334 21 4.30449 21.7681 4.04362C22.3478 3.81174 22.942 3.59435 23.5362 3.40595C24.029 3.23203 24.5362 3.04363 25.029 2.91319C25.3044 2.86971 25.6087 2.78276 25.8841 2.68131H25.971C26.058 2.63783 26.2899 2.59435 26.4203 2.5074C26.5072 2.46392 26.5942 2.33348 26.4638 2.23203C26.1449 2.14507 25.7391 2.23204 25.4203 2.27551C25.1884 2.27551 24.9275 2.31899 24.6956 2.36247C24.2464 2.44942 23.7971 2.53638 23.3333 2.63783C22.5217 2.76827 21.7536 2.95667 20.942 3.17406C20.1304 3.34797 19.3188 3.57986 18.5072 3.81174C17.7391 3.98566 16.971 4.21754 16.2029 4.4929C15.4783 4.72479 14.7536 4.98566 14.029 5.26102C13.3043 5.4929 12.6232 5.75377 11.9565 6.07261C11.3188 6.34797 10.6522 6.60884 10.0145 6.92768C9.42029 7.20305 8.84058 7.52189 8.2029 7.82624C7.66666 8.14508 7.11594 8.46391 6.57971 8.82623C6.08696 9.10159 5.57971 9.46391 5.08695 9.76826C4.63768 10.1306 4.23188 10.4494 3.78261 10.8117C3.37681 11.1306 3.01449 11.4929 2.65217 11.8552C2.33333 12.2175 2.01449 12.5364 1.71014 12.9422C1.43478 13.261 1.21739 13.6233 0.985506 13.9857C0.753621 14.348 0.579707 14.7103 0.449272 15.0726C0.275359 15.3915 0.17391 15.7538 0.086953 16.1161C0.0434747 16.4784 0 16.8407 0 17.2031C0 17.4349 0.0434765 17.6523 0.0434765 17.8407C0.173911 18.4784 0.405797 19.1016 0.724638 19.6523C1.08696 20.2465 1.57971 20.7828 2.13043 21.232C2.71014 21.7248 3.43478 22.1741 4.15942 22.5364C4.97101 22.9857 5.82609 23.348 6.73913 23.6668C7.78261 24.0291 8.81159 24.3045 9.85507 24.5219C11.029 24.7538 12.2464 24.9277 13.4203 25.0581C14.7246 25.1886 16.0435 25.29 17.3913 25.3335C18.7971 25.377 20.2319 25.377 21.6377 25.3335C23.1739 25.2465 24.6667 25.1016 26.1594 24.9712C26.6087 24.8842 27.058 24.8407 27.5217 24.7973C27.7971 24.7538 28.058 24.7103 28.2899 24.6668C28.5652 24.6233 29.0145 24.5799 29.2319 24.348C29.3623 24.2175 29.2319 24.1306 29.1449 24.0871Z" fill="white"/>
<path  clip-rule="evenodd" d="M23.2607 34.0291C23.3911 33.9422 23.6664 33.8987 23.7534 33.8552H23.8404C24.1157 33.7683 24.3766 33.7248 24.652 33.6233C25.3766 33.3914 26.1012 33.2175 26.8259 32.9857C28.1302 32.5364 29.4491 32.0436 30.7099 31.4494C31.8404 30.9567 32.9708 30.4059 34.0143 29.7393C34.9563 29.203 35.8693 28.5654 36.7244 27.8842C37.4925 27.2465 38.1737 26.5798 38.7534 25.8552C39.2896 25.174 39.7534 24.4929 40.0577 23.7248C40.3766 23.0001 40.5505 22.2755 40.594 21.5509C40.594 21.1885 40.594 20.7827 40.5505 20.4204C40.4635 20.0146 40.3766 19.6088 40.1882 19.2465C40.0578 18.8407 39.8259 18.4784 39.594 18.1596C39.3186 17.7972 39.0143 17.4349 38.6954 17.1161C38.3331 16.7972 37.9708 16.4784 37.565 16.2175C37.1592 15.8987 36.6664 15.6378 36.2027 15.3625C35.7099 15.0871 35.1592 14.8697 34.623 14.6378C34.0288 14.4059 33.4491 14.1885 32.8549 14.0001C32.2172 13.8262 31.5505 13.6378 30.9128 13.5074C30.1882 13.377 29.4635 13.232 28.7824 13.1016C28.0143 13.0146 27.2462 12.8697 26.478 12.8262C25.7099 12.7393 24.8983 12.6958 24.0867 12.6523C23.4925 12.6523 22.8693 12.6088 22.2317 12.6088H20.652C20.3331 12.6088 20.0577 12.6523 19.7534 12.6523H19.6664C19.5795 12.6523 19.3476 12.6958 19.2172 12.6523C19.0867 12.6088 18.9853 12.5219 19.0867 12.4204C19.3186 12.1885 19.7679 12.1451 20.0867 12.1016C20.3186 12.0581 20.5795 12.0146 20.8114 11.9712C21.2606 11.9277 21.7099 11.8842 22.1737 11.7827C22.9853 11.6958 23.7969 11.6523 24.6085 11.5509H24.652C25.4635 11.5074 26.2751 11.4639 27.1302 11.4204C27.9418 11.377 28.7099 11.377 29.5215 11.377C30.2896 11.377 31.0577 11.377 31.8259 11.4204C32.594 11.4639 33.3186 11.5074 34.0433 11.5509C34.7679 11.6378 35.4925 11.6813 36.1737 11.7827C36.8549 11.8697 37.536 12.0146 38.1592 12.1016C38.7969 12.232 39.4201 12.377 40.0143 12.5074C40.6085 12.6813 41.1882 12.8262 41.7244 13.0001C42.2606 13.1741 42.8114 13.3625 43.3041 13.5799C43.7534 13.7683 44.2462 13.9856 44.7099 14.2175C45.1157 14.4494 45.5215 14.6668 45.9273 14.9422C46.2896 15.1741 46.652 15.4349 46.9708 15.7103C47.2896 15.9856 47.5505 16.2465 47.8259 16.5654C48.0578 16.8407 48.2751 17.1596 48.4635 17.4639C48.6375 17.7828 48.7824 18.1016 48.8694 18.4639C48.9563 18.6958 48.9998 18.8697 48.9998 19.1016C49.1302 19.7393 49.0867 20.3625 48.9128 21.0001C48.7824 21.6813 48.4635 22.3625 48.1012 22.9422C47.6954 23.6233 47.1592 24.2465 46.6085 24.8407C45.9273 25.5219 45.2027 26.1016 44.4346 26.6958C43.5795 27.3335 42.6664 27.9132 41.7244 28.4639C40.6809 29.0581 39.652 29.5943 38.5215 30.0871C37.3476 30.6233 36.0867 31.1306 34.8549 31.5798C33.507 32.0291 32.1447 32.4784 30.7824 32.8407C29.2896 33.2465 27.8404 33.6088 26.3476 33.9277C25.8983 34.0146 25.4491 34.0581 24.9998 34.1596C24.7679 34.203 24.507 34.2465 24.2317 34.29C24.0578 34.29 23.8259 34.3335 23.594 34.3335H23.5505C23.4635 34.3335 23.3186 34.3335 23.2317 34.29C23.1302 34.203 23.2172 34.0726 23.2607 34.0291Z" fill="white"/>
<path d="M126.855 4.05806V10.8552H126.84L126.551 10.4639C126.348 10.203 126.116 9.88414 125.855 9.50733C125.594 9.13052 125.304 8.75371 125.029 8.34791C124.754 7.95661 124.522 7.63777 124.333 7.39139L121.869 4.08705H119.261V15.6233H122.029V8.79719H122.043L122.304 9.15951C122.493 9.40589 122.696 9.72472 122.971 10.087C123.232 10.4494 123.522 10.8407 123.812 11.2755C124.101 11.7102 124.391 12.1015 124.652 12.4639L127.014 15.6668H129.623V4.07255H126.855V4.05806ZM116.855 7.46386C116.536 6.72473 116.116 6.10153 115.565 5.5653C115.014 5.04356 114.377 4.62327 113.652 4.33342C112.927 4.02907 112.145 3.88415 111.319 3.88415C110.493 3.88415 109.725 4.02907 108.985 4.33342C108.261 4.62327 107.623 5.04356 107.072 5.5653C106.522 6.10153 106.101 6.73922 105.783 7.47835C105.464 8.21748 105.304 9.02907 105.304 9.89864L105.348 9.86965C105.348 10.7392 105.493 11.5508 105.812 12.2899C106.13 13.0291 106.551 13.6812 107.101 14.203C107.652 14.7247 108.275 15.145 109 15.4349C109.725 15.7102 110.493 15.8697 111.319 15.8697C112.145 15.8697 112.913 15.7247 113.638 15.4349C114.362 15.1305 115.014 14.7247 115.551 14.203C116.101 13.6812 116.522 13.0436 116.84 12.3044C117.159 11.5653 117.304 10.7537 117.304 9.88415C117.304 9.01458 117.174 8.20299 116.855 7.46386ZM114.29 11.174C114.145 11.5653 113.927 11.9131 113.652 12.203C113.377 12.4784 113.043 12.7102 112.667 12.8841C112.29 13.0436 111.855 13.1305 111.377 13.1305C110.913 13.1305 110.493 13.0436 110.101 12.8841C109.725 12.7247 109.391 12.5073 109.13 12.2175C108.869 11.9421 108.652 11.5943 108.507 11.1885C108.362 10.7972 108.275 10.3479 108.275 9.86965L108.304 9.84066C108.304 9.3624 108.362 8.91313 108.522 8.52183C108.667 8.13052 108.884 7.7827 109.145 7.49285C109.406 7.21748 109.739 7.00009 110.116 6.82617C110.493 6.66675 110.927 6.57979 111.391 6.57979C111.869 6.57979 112.304 6.66675 112.681 6.82617C113.058 6.98559 113.391 7.21748 113.667 7.50733C113.942 7.7827 114.159 8.13052 114.304 8.53632C114.449 8.92762 114.522 9.3769 114.522 9.85516C114.522 10.3334 114.435 10.7682 114.29 11.174ZM94.9129 4.05806V6.65226H98.3767V15.6088H101.145V6.65226H104.652V4.05806H94.9129ZM90.6956 4.05806V15.6088H93.4637V4.05806H90.6956ZM83.6231 13.0146V4.05806H80.855V15.6088H89.0869V13.0146H83.6231ZM78.4347 7.46386C78.1158 6.72473 77.6956 6.10153 77.1448 5.5653C76.5941 5.04356 75.9564 4.62327 75.2318 4.33342C74.5071 4.02907 73.7245 3.88415 72.9129 3.88415C72.1014 3.88415 71.3187 4.02907 70.5941 4.33342C69.8695 4.62327 69.2173 5.04356 68.6811 5.5653C68.1303 6.10153 67.7101 6.73922 67.3912 7.47835C67.0724 8.21748 66.913 9.02907 66.913 9.89864L66.9564 9.86965C66.9564 10.7392 67.1014 11.5508 67.4202 12.2899C67.739 13.0291 68.1593 13.6812 68.71 14.203C69.2608 14.7247 69.884 15.145 70.6086 15.4349C71.3332 15.7102 72.1158 15.8697 72.9419 15.8697C73.768 15.8697 74.5361 15.7247 75.2608 15.4349C75.9854 15.1305 76.6231 14.7247 77.1738 14.203C77.7245 13.6812 78.1448 13.0436 78.4637 12.3044C78.7825 11.5653 78.9274 10.7537 78.9274 9.88415C78.9274 9.01458 78.7535 8.20299 78.4347 7.46386ZM75.8695 11.174C75.7245 11.5653 75.5071 11.9131 75.2318 12.203C74.9564 12.4784 74.6231 12.7102 74.2463 12.8841C73.8695 13.0436 73.4347 13.1305 72.9564 13.1305C72.4927 13.1305 72.0724 13.0436 71.6811 12.8841C71.3042 12.7247 70.9709 12.5073 70.71 12.2175C70.4492 11.9421 70.2318 11.5943 70.0869 11.1885C69.9419 10.7972 69.855 10.3479 69.855 9.86965L69.884 9.84066C69.884 9.3624 69.9564 8.91313 70.1014 8.52183C70.2463 8.13052 70.4637 7.7827 70.7245 7.49285C70.9854 7.21748 71.3187 7.00009 71.6956 6.82617C72.0724 6.66675 72.5072 6.57979 72.9709 6.57979C73.4492 6.57979 73.884 6.66675 74.2608 6.82617C74.6376 6.98559 74.9709 7.21748 75.2463 7.50733C75.5216 7.7827 75.739 8.13052 75.884 8.53632C76.0289 8.92762 76.1014 9.3769 76.1014 9.85516C76.1014 10.3334 76.0144 10.7682 75.8695 11.174ZM64.8115 9.91313C64.4782 9.63777 64.1014 9.39139 63.6956 9.174C63.2898 8.95661 62.855 8.7827 62.4202 8.62328C62.0724 8.49284 61.739 8.3769 61.4347 8.27545C61.1303 8.174 60.855 8.05806 60.6231 7.94212C60.3912 7.82618 60.2173 7.69574 60.0724 7.56531C59.9419 7.43487 59.8695 7.26095 59.8695 7.08704C59.8695 6.85516 59.9854 6.65227 60.2173 6.47835C60.4492 6.28995 60.768 6.21748 61.1738 6.21748C61.5941 6.21748 61.9854 6.33342 62.3622 6.57979C62.739 6.82617 62.9999 7.20299 63.1593 7.72473H63.2318L65.8985 7.00009C65.768 6.55081 65.5506 6.14501 65.2753 5.73922C64.9999 5.34791 64.6666 5.01458 64.2753 4.73922C63.884 4.46386 63.4347 4.24646 62.9419 4.07255C62.4492 3.91313 61.9129 3.82617 61.3767 3.82617C60.7535 3.82617 60.1738 3.92762 59.6376 4.10154C59.1158 4.28994 58.6521 4.53632 58.2753 4.84066C57.8985 5.15951 57.5941 5.52182 57.3767 5.92762C57.1593 6.34791 57.0434 6.7682 57.0434 7.21748C57.0434 7.72473 57.1303 8.15951 57.3042 8.52183C57.4782 8.88415 57.7101 9.20299 57.9999 9.46386C58.2753 9.72473 58.5941 9.94212 58.9419 10.1015C59.2898 10.261 59.6376 10.4204 59.9854 10.5508C60.3912 10.6957 60.7825 10.8262 61.1448 10.9421C61.5071 11.0581 61.826 11.1885 62.0869 11.3189C62.3477 11.4494 62.5651 11.5943 62.7245 11.7537C62.884 11.8986 62.9709 12.1015 62.9709 12.3334C62.9709 12.6088 62.855 12.8552 62.6231 13.0581C62.3912 13.261 62.0289 13.3624 61.5361 13.3624C61.2173 13.3624 60.9419 13.3189 60.6956 13.2175C60.4492 13.116 60.2173 12.9856 60.0144 12.8262C59.8115 12.6668 59.6521 12.4783 59.5216 12.261C59.3912 12.0436 59.2753 11.8262 59.1883 11.6233L56.5361 12.3334C56.9129 13.4204 57.5216 14.2754 58.3477 14.9131C59.1738 15.5363 60.1883 15.8407 61.4057 15.8407C62.0869 15.8407 62.6956 15.7537 63.2608 15.5943C63.826 15.4059 64.3042 15.1595 64.6956 14.8407C65.0869 14.5073 65.3912 14.1305 65.6086 13.6812C65.826 13.232 65.9274 12.7537 65.9274 12.232C65.9274 11.7392 65.826 11.3044 65.6376 10.9276C65.4057 10.5218 65.1448 10.203 64.8115 9.91313Z" fill="white"/>
<path d="M153.392 18.8986C153.305 18.5798 153.203 18.2609 153.087 17.9566C152.609 16.7247 151.957 15.6523 151.116 14.7102C150.276 13.7827 149.261 13.0436 148.102 12.5073C146.928 11.9711 145.667 11.7102 144.305 11.7102H143.812L143.232 11.7537L153.087 0.826172H134.522V3.88414H146.29L136.928 14.8986C138.058 14.7827 139.189 14.6957 140.348 14.6523C141.507 14.6088 142.652 14.5798 143.812 14.5798C144.783 14.5798 145.696 14.7827 146.536 15.1885C147.377 15.5943 148.116 16.116 148.739 16.7972C149.363 17.4638 149.855 18.2465 150.232 19.1305C150.565 19.9276 150.754 20.7537 150.783 21.6088C150.783 21.6957 150.783 21.7972 150.783 21.8841C150.783 22.8986 150.594 23.8407 150.203 24.7102C149.812 25.5798 149.305 26.3479 148.652 27.0001C148 27.6523 147.232 28.174 146.363 28.5653C145.493 28.9566 144.551 29.145 143.536 29.145H134.522V32.116H142.522C145.652 32.116 148.377 31.4494 150.768 29.145C150.797 29.116 150.826 29.087 150.841 29.0726C151.754 28.145 152.464 27.087 152.986 25.8696C153.522 24.6233 153.783 23.2899 153.783 21.8696C153.783 20.8407 153.652 19.8407 153.392 18.8986Z" fill="white"/>
<path d="M170.348 32.2319C161.464 32.2319 154.232 25 154.232 16.1159C154.232 7.23189 161.464 0 170.348 0C179.232 0 186.464 7.23189 186.464 16.1159C186.464 25 179.232 32.2319 170.348 32.2319ZM170.348 2.88405C163.044 2.88405 157.116 8.82609 157.116 16.1159C157.116 23.4203 163.058 29.3478 170.348 29.3478C177.652 29.3478 183.58 23.4058 183.58 16.1159C183.58 8.8116 177.638 2.88405 170.348 2.88405Z" fill="white"/>
<path d="M136.449 36.5073H136.884V39.8551H136.449V38.3479H134.826V39.8551H134.377V36.5073H134.826V37.9276H136.449V36.5073Z" fill="white"/>
<path d="M137.435 37.9708H140.435C140.391 37.6954 140.275 37.4491 140.073 37.2462C139.826 36.9998 139.522 36.8694 139.16 36.8694C138.797 36.8694 138.478 36.9998 138.232 37.2462L137.928 36.9418C138.261 36.6085 138.667 36.4346 139.16 36.4346C139.638 36.4346 140.058 36.6085 140.391 36.9418C140.725 37.2751 140.899 37.6809 140.899 38.1737C140.899 38.6665 140.725 39.0578 140.391 39.4056C140.058 39.7389 139.652 39.9128 139.16 39.9128C138.681 39.9128 138.261 39.7389 137.928 39.4056C137.594 39.0723 137.42 38.6665 137.42 38.1737C137.435 38.1012 137.435 38.0288 137.435 37.9708ZM140.435 38.3766H137.884C137.928 38.652 138.044 38.8983 138.232 39.1012C138.478 39.3476 138.783 39.478 139.16 39.478C139.522 39.478 139.841 39.3476 140.073 39.1012C140.275 38.8983 140.406 38.652 140.435 38.3766Z" fill="white"/>
<path d="M143.421 39.8551L142.667 38.5798H141.884V39.8551H141.435V36.5073H142.768C143.058 36.5073 143.305 36.6088 143.508 36.8117C143.71 37.0146 143.812 37.2609 143.812 37.5363C143.812 37.7537 143.739 37.9566 143.609 38.1305C143.479 38.3044 143.319 38.4349 143.116 38.5073L143.899 39.8407H143.421V39.8551ZM141.884 36.9131V38.1595H142.783C142.957 38.1595 143.087 38.1015 143.203 37.9711C143.319 37.8407 143.377 37.6957 143.377 37.5218C143.377 37.3479 143.319 37.203 143.203 37.087C143.087 36.9711 142.957 36.8986 142.783 36.8986H141.884V36.9131Z" fill="white"/>
<path d="M147.754 39.8551L147.478 39.1015H145.971L145.696 39.8551H145.217L146.464 36.5073H146.971L148.217 39.8551H147.754ZM146.13 38.6812H147.333L146.725 37.0291L146.13 38.6812Z" fill="white"/>
<path d="M149.928 36.5073C150.377 36.5073 150.754 36.6667 151.058 37.0001C151.363 37.3189 151.508 37.7247 151.508 38.1885C151.508 38.6522 151.348 39.0581 151.058 39.3769C150.754 39.6957 150.377 39.8551 149.928 39.8551H148.624V36.5073H149.928V36.5073ZM149.928 39.4349C150.261 39.4349 150.551 39.3189 150.768 39.0726C150.986 38.8407 151.087 38.5363 151.087 38.174C151.087 37.8117 150.971 37.5218 150.768 37.2754C150.566 37.0291 150.276 36.9131 149.928 36.9131H149.073V39.4204H149.928V39.4349Z" fill="white"/>
<path d="M153.362 36.5073C153.812 36.5073 154.189 36.6667 154.493 37.0001C154.797 37.3189 154.942 37.7247 154.942 38.1885C154.942 38.6522 154.783 39.0581 154.493 39.3769C154.189 39.6957 153.812 39.8551 153.362 39.8551H152.058V36.5073H153.362V36.5073ZM153.362 39.4349C153.696 39.4349 153.986 39.3189 154.203 39.0726C154.42 38.8407 154.522 38.5363 154.522 38.174C154.522 37.8117 154.406 37.5218 154.203 37.2754C154 37.0291 153.71 36.9131 153.362 36.9131H152.507V39.4204H153.362V39.4349Z" fill="white"/>
<path d="M155.493 36.5073H155.942V39.8551H155.493V36.5073Z" fill="white"/>
<path d="M159.797 36.5073V39.8551H159.362V37.232L158.261 39.058H158.203L157.102 37.2465V39.8551H156.652V36.5073H157.16L158.232 38.2755L159.29 36.5073H159.797Z" fill="white"/>
<path d="M161.812 36.5073C162.261 36.5073 162.638 36.6667 162.942 37.0001C163.246 37.3189 163.391 37.7247 163.391 38.1885C163.391 38.6522 163.232 39.0581 162.942 39.3769C162.638 39.6957 162.261 39.8551 161.812 39.8551H160.507V36.5073H161.812V36.5073ZM161.812 39.4349C162.145 39.4349 162.435 39.3189 162.652 39.0726C162.87 38.8407 162.971 38.5363 162.971 38.174C162.971 37.8117 162.855 37.5218 162.652 37.2754C162.449 37.0291 162.159 36.9131 161.812 36.9131H160.957V39.4204H161.812V39.4349Z" fill="white"/>
<path d="M166.029 39.8551L165.754 39.1015H164.246L163.971 39.8551H163.493L164.739 36.5073H165.246L166.493 39.8551H166.029ZM164.406 38.6812H165.609L165 37.0291L164.406 38.6812Z" fill="white"/>
<path d="M167.87 39.0871L168.435 38.7537C168.565 39.0871 168.826 39.261 169.203 39.261C169.565 39.261 169.739 39.1161 169.739 38.9132C169.739 38.7972 169.681 38.6958 169.58 38.6378C169.478 38.5653 169.29 38.4929 169.015 38.4204C168.71 38.3335 168.536 38.261 168.319 38.1161C168.116 37.9566 168 37.7393 168 37.4204C168 37.1161 168.102 36.8697 168.319 36.6958C168.536 36.5074 168.797 36.4204 169.102 36.4204C169.638 36.4204 170.073 36.6958 170.304 37.174L169.754 37.4929C169.623 37.203 169.406 37.0581 169.116 37.0581C168.841 37.0581 168.681 37.203 168.681 37.3914C168.681 37.4929 168.725 37.5798 168.812 37.6523C168.899 37.7103 169.073 37.7827 169.319 37.8697L169.551 37.9421C169.609 37.9566 169.681 37.9856 169.768 38.0291C169.855 38.0581 169.928 38.1016 169.986 38.1306C170.087 38.1885 170.246 38.319 170.304 38.4204C170.377 38.5364 170.435 38.6958 170.435 38.8987C170.435 39.203 170.319 39.4494 170.102 39.6378C169.87 39.8262 169.58 39.9132 169.232 39.9132C168.522 39.9132 168.058 39.5943 167.87 39.0871Z" fill="white"/>
<path d="M170.87 35.6232C171.087 35.3768 171.522 35.5797 171.507 35.884C171.507 36.0869 171.333 36.2608 171.145 36.2608C170.826 36.2753 170.638 35.8261 170.87 35.6232ZM170.812 36.5072H171.478V39.855H170.812V36.5072Z" fill="white"/>
<path d="M172.797 39.2175H174.217V39.8551H171.957V39.3334L173.348 37.145H171.986V36.5073H174.188V37.0291L172.797 39.2175Z" fill="white"/>
<path d="M174.71 35.6232C174.927 35.3768 175.362 35.5797 175.348 35.884C175.348 36.0869 175.174 36.2608 174.985 36.2608C174.667 36.2753 174.478 35.8261 174.71 35.6232ZM174.652 36.5072H175.319V39.855H174.652V36.5072Z" fill="white"/>
<path d="M177.87 36.5073H178.536V39.8551H178.029L176.594 37.8117V39.8551H175.928V36.5073H176.435L177.87 38.5508V36.5073Z" fill="white"/>
<path d="M179.812 39.2175H181.087V39.8551H179.145V36.5073H179.812V39.2175V39.2175Z" fill="white"/>
<path d="M181.812 36.9418C182.145 36.6085 182.566 36.4346 183.044 36.4346C183.522 36.4346 183.942 36.6085 184.276 36.9418C184.609 37.2751 184.783 37.6809 184.783 38.1737C184.783 38.6665 184.609 39.0723 184.276 39.4056C183.942 39.7389 183.522 39.9128 183.044 39.9128C182.566 39.9128 182.145 39.7389 181.812 39.4056C181.479 39.0723 181.305 38.652 181.305 38.1737C181.305 38.0723 181.319 37.9563 181.334 37.8694H184.087C184.044 37.681 183.942 37.5215 183.812 37.3911C183.609 37.1882 183.348 37.0867 183.044 37.0867C182.739 37.0867 182.479 37.1882 182.276 37.3911L181.812 36.9418ZM183.044 39.2751C183.348 39.2751 183.609 39.1737 183.812 38.9708C183.942 38.8404 184.044 38.681 184.087 38.4926H182C182.044 38.681 182.145 38.8404 182.276 38.9708C182.479 39.1737 182.739 39.2751 183.044 39.2751Z" fill="white"/>
<path d="M165.116 14.2321C165.116 14.0582 165.247 13.9277 165.421 13.9277C165.594 13.9277 165.71 14.0582 165.71 14.2321C165.71 14.406 165.565 14.5219 165.421 14.5219C165.247 14.5364 165.116 14.406 165.116 14.2321ZM165.189 14.8408H165.638V18.1886H165.189V14.8408Z" fill="white"/>
<path d="M166.798 17.7684H168.247V18.1887H166.363V14.8408H166.812V17.7684H166.798Z" fill="white"/>
<path d="M170 14.8408C170.449 14.8408 170.826 15.0002 171.131 15.3336C171.435 15.6524 171.58 16.0582 171.58 16.522C171.58 16.9858 171.42 17.3916 171.131 17.7104C170.826 18.0292 170.449 18.1887 170 18.1887H168.696V14.8408H170ZM170 17.7684C170.333 17.7684 170.623 17.6524 170.841 17.406C171.058 17.1597 171.16 16.8698 171.16 16.5075C171.16 16.1452 171.044 15.8553 170.841 15.6089C170.623 15.3626 170.348 15.2466 170 15.2466H169.145V17.7539H170V17.7684Z" fill="white"/>
<path d="M172.044 14.2321C172.044 14.0582 172.174 13.9277 172.348 13.9277C172.522 13.9277 172.638 14.0582 172.638 14.2321C172.638 14.406 172.493 14.5219 172.348 14.5219C172.174 14.5364 172.044 14.406 172.044 14.2321ZM172.131 14.8408H172.58V18.1886H172.131V14.8408Z" fill="white"/>
<path d="M175.276 18.1887L174.522 16.9133H173.739V18.1887H173.29V14.8408H174.623C174.913 14.8408 175.16 14.9423 175.362 15.1452C175.565 15.3481 175.667 15.5944 175.667 15.8698C175.667 16.0872 175.594 16.2901 175.464 16.464C175.334 16.6379 175.174 16.7684 174.971 16.8408L175.754 18.1742H175.276V18.1887ZM173.739 15.2466V16.493H174.638C174.812 16.493 174.942 16.435 175.058 16.3046C175.174 16.1742 175.232 16.0292 175.232 15.8553C175.232 15.6814 175.174 15.5365 175.058 15.4205C174.942 15.3046 174.812 15.2321 174.638 15.2321H173.739V15.2466Z" fill="white"/>
</g>
<defs>
<clipPath id="clip0_1488_4">
<rect width="186.522" height="40" fill="white"/>
</clipPath>
</defs>
</svg>
